# xmcd CD database file
#
# Track frame offsets:
#	150
#	23058
#	49328
#	70048
#	92728
#	114856
#	139515
#	158590
#	185833
#	212246
#	233446
#	248899
#	267809
#	297896
#
# Disc length: 4245 seconds
#
# Revision: 0
# Processed by: cddbd v1.5.1PL0 Copyright (c) Steve Scherf et al.
# Submitted via: CDex 1.51
#
DISCID=bc10930e
DTITLE=Various Artist - Super Salsa
DYEAR=2004
DGENRE=Salsa
TTITLE0=El divorcio
TTITLE1=La bicycleta
TTITLE2=Diokoma sa loxo
TTITLE3=Taar
TTITLE4=Djiguene
TTITLE5=Ke ce kuya
TTITLE6=Diamono
TTITLE7=Jiin ma Jiin ma
TTITLE8=Hommage a tonton Ferrer
TTITLE9=Hou Haa
TTITLE10=Ambiance latine
TTITLE11=La rumba
TTITLE12=Korta la caya
TTITLE13=Guantanamera
EXTD=YEAR: 2004
EXTT0=
EXTT1=
EXTT2=
EXTT3=
EXTT4=
EXTT5=
EXTT6=
EXTT7=
EXTT8=
EXTT9=
EXTT10=
EXTT11=
EXTT12=
EXTT13=
PLAYORDER=
